<?xml version="1.0" encoding="UTF-8"?>
<svg width="752pt" height="752pt" version="1.1" viewBox="0 0 752 752" xmlns="http://www.w3.org/2000/svg">
 <g>
  <path d="m376 228.01c3.9258 0 7.6914-1.5586 10.465-4.3359 2.7773-2.7734 4.3359-6.5391 4.3359-10.465v-29.598c0-5.2891-2.8203-10.172-7.3984-12.816-4.582-2.6445-10.223-2.6445-14.801 0-4.5781 2.6445-7.3984 7.5273-7.3984 12.816v29.598c0 3.9258 1.5586 7.6914 4.332 10.465 2.7773 2.7773 6.543 4.3359 10.465 4.3359z"/>
  <path d="m376 524c-3.9219 0-7.6875 1.5586-10.465 4.3359-2.7734 2.7734-4.332 6.5391-4.332 10.461v29.602c0 5.2852 2.8203 10.172 7.3984 12.816 4.5781 2.6445 10.219 2.6445 14.801 0 4.5781-2.6445 7.3984-7.5312 7.3984-12.816v-29.602c0-3.9219-1.5586-7.6875-4.3359-10.461-2.7734-2.7773-6.5391-4.3359-10.465-4.3359z"/>
  <path d="m213.21 361.2h-29.598c-5.2891 0-10.172 2.8203-12.816 7.3984-2.6445 4.5781-2.6445 10.219 0 14.801 2.6445 4.5781 7.5273 7.3984 12.816 7.3984h29.598c5.2891 0 10.176-2.8203 12.816-7.3984 2.6445-4.582 2.6445-10.223 0-14.801-2.6406-4.5781-7.5273-7.3984-12.816-7.3984z"/>
  <path d="m250.43 480.65-20.941 20.926c-2.7773 2.7773-4.3398 6.543-4.3398 10.473 0 3.9258 1.5625 7.6914 4.3398 10.469 2.7773 2.7773 6.543 4.3359 10.469 4.3359 3.9297 0 7.6953-1.5586 10.473-4.3359l20.926-20.926c2.8555-2.7578 4.4805-6.5469 4.5156-10.516 0.035156-3.9727-1.5273-7.7891-4.332-10.594-2.8086-2.8086-6.625-4.3711-10.594-4.3359-3.9688 0.035157-7.7578 1.6641-10.516 4.5195z"/>
  <path d="m250.43 271.36c3.7578 3.6289 9.1523 5.0078 14.191 3.6289 5.043-1.3828 8.9805-5.3203 10.363-10.363 1.3789-5.0391 0-10.434-3.6289-14.191l-20.926-20.941c-3.7422-3.7422-9.1953-5.2031-14.305-3.832-5.1094 1.3672-9.1016 5.3594-10.469 10.469-1.3711 5.1094 0.089844 10.562 3.832 14.305z"/>
  <path d="m390.8 258.49c-9.832-1.1836-19.77-1.1836-29.598 0-38.57 4.7539-72.352 28.129-90.395 62.547-18.039 34.422-18.039 75.504 0 109.92 18.043 34.422 51.824 57.797 90.395 62.547 9.8281 1.1836 19.766 1.1836 29.598 0 38.57-4.75 72.352-28.125 90.391-62.547 18.043-34.418 18.043-75.5 0-109.92-18.039-34.418-51.82-57.793-90.391-62.547zm-29.598 204.97c-27.805-4.6758-51.727-22.289-64.445-47.449s-12.719-54.867 0-80.027c12.719-25.16 36.641-42.777 64.445-47.453 4.8789-0.89453 9.8359-1.3398 14.797-1.332v177.59c-4.9609 0.011719-9.918-0.43359-14.797-1.332z"/>
 </g>
</svg>
